<svg width="15" height="14" viewBox="0 0 15 14" fill="none" xmlns="http://www.w3.org/2000/svg">
<g clip-path="url(#clip0_8_116)">
<path d="M10.9637 10.4652C9.96654 11.2253 8.75234 11.6463 7.4987 11.6668C3.41536 11.6668 1.08203 7.00018 1.08203 7.00018C1.80763 5.64795 2.81403 4.46653 4.0337 3.53518M6.2737 2.47351C6.67522 2.37952 7.08632 2.33254 7.4987 2.33351C11.582 2.33351 13.9154 7.00018 13.9154 7.00018C13.5613 7.66262 13.139 8.28627 12.6554 8.86101M8.73536 8.23684C8.57515 8.40878 8.38195 8.54669 8.16729 8.64233C7.95262 8.73798 7.72089 8.78941 7.48592 8.79356C7.25094 8.7977 7.01754 8.75448 6.79964 8.66646C6.58173 8.57845 6.38379 8.44744 6.21761 8.28127C6.05143 8.11509 5.92043 7.91714 5.83241 7.69924C5.7444 7.48133 5.70117 7.24793 5.70532 7.01296C5.70946 6.77798 5.76089 6.54625 5.85654 6.33159C5.95219 6.11692 6.0901 5.92372 6.26203 5.76351" stroke="#C6C0C0" stroke-width="1.12" stroke-linecap="round" stroke-linejoin="round"/>
<path d="M1.08203 0.583496L13.9154 13.4168" stroke="#C6C0C0" stroke-width="1.12" stroke-linecap="round" stroke-linejoin="round"/>
</g>
<defs>
<clipPath id="clip0_8_116">
<rect width="14" height="14" fill="white" transform="translate(0.5)"/>
</clipPath>
</defs>
</svg>
